<svg width="43" height="29" viewBox="0 0 43 29" fill="none" xmlns="http://www.w3.org/2000/svg">
<path d="M8.34965 28.851C5.43698 28.851 3.30103 28.2098 1.94178 26.9276C0.64726 25.5812 0 23.9142 0 21.9267V19.9072C0 18.0479 0.258904 16.1886 0.776712 14.3293C1.35925 12.4059 2.10359 10.5787 3.00976 8.84763C3.98065 7.11657 5.11335 5.51374 6.40787 4.03913C7.70239 2.50041 9.094 1.15404 10.5827 0H19.612C17.476 1.9234 15.6313 3.87885 14.0779 5.86636C12.5892 7.85387 11.4565 10.0658 10.6798 12.5021C12.751 12.8868 14.2721 13.7523 15.243 15.0987C16.2139 16.3809 16.6993 17.8555 16.6993 19.5225V21.9267C16.6993 23.9142 16.0197 25.5812 14.6604 26.9276C13.3659 28.2098 11.2623 28.851 8.34965 28.851ZM31.1656 28.851C28.2529 28.851 26.1169 28.2098 24.7577 26.9276C23.4632 25.5812 22.8159 23.9142 22.8159 21.9267V19.9072C22.8159 18.0479 23.0748 16.1886 23.5926 14.3293C24.1752 12.4059 24.9195 10.5787 25.8257 8.84763C26.7966 7.11657 27.9293 5.51374 29.2238 4.03913C30.5183 2.50041 31.9099 1.15404 33.3986 0H42.4279C40.2919 1.9234 38.4472 3.87885 36.8938 5.86636C35.4051 7.85387 34.2724 10.0658 33.4957 12.5021C35.5669 12.8868 37.088 13.7523 38.0589 15.0987C39.0298 16.3809 39.5152 17.8555 39.5152 19.5225V21.9267C39.5152 23.9142 38.8356 25.5812 37.4763 26.9276C36.1818 28.2098 34.0782 28.851 31.1656 28.851Z" fill="#E6E6E6"/>
</svg>
